<svg width="231" height="37" viewBox="0 0 231 37" fill="none" xmlns="http://www.w3.org/2000/svg">
<path d="M18.2484 35.2507C27.9826 35.2507 35.8738 27.3596 35.8738 17.6253C35.8738 7.89111 27.9826 -3.05176e-05 18.2484 -3.05176e-05C8.51419 -3.05176e-05 0.623047 7.89111 0.623047 17.6253C0.623047 27.3596 8.51419 35.2507 18.2484 35.2507Z" fill="#3A4042"/>
<path d="M33.0372 15.5831C28.2191 15.5831 26.0741 21.1851 26.0081 21.3597C25.8532 21.8372 24.7918 25.2257 24.7918 27.9351C24.7918 33.0557 20.5446 36.0186 15.3921 36.0186C10.1969 36.0186 5.98797 33.0109 5.98797 27.818C5.98797 27.818 5.98797 24.9488 6.33726 22.4013C5.50866 21.4641 5.38723 19.9624 5.38723 19.9624C5.38723 19.9624 5.03819 20.0305 4.71877 20.2966C4.67931 20.3296 4.61885 20.2978 4.62487 20.2467C4.71926 19.4454 5.53078 17.7449 7.13821 17.5001C7.41941 16.3626 7.95182 15.1592 8.07325 14.9313C9.70268 11.8939 12.9062 9.82992 16.5934 9.82992C17.946 9.82992 19.2325 10.1068 20.4019 10.6095C23.6523 10.6095 25.2221 8.88419 25.2221 8.88419C25.9519 8.88419 26.8315 10.7937 26.424 11.5052C26.414 11.5226 26.4361 11.5429 26.4531 11.5321C27.8071 10.6695 28.5705 8.54129 28.5705 8.54129C30.1168 9.31447 30.9285 12.7885 30.0976 13.6192C32.7667 14.0302 33.4846 15.5831 33.0372 15.5831Z" fill="#FFFCEE"/>
<path d="M15.1592 36.0144C10.0714 35.9264 5.98764 32.9346 5.98764 27.8188C5.98764 27.8188 5.94499 27.0845 6.06507 25.3566C11.3849 24.5205 8.77002 32.1447 15.1592 36.0144Z" fill="#EAE6DA"/>
<path d="M33.161 15.4468C33.161 15.5319 33.1183 15.5831 33.0374 15.5831C32.9608 15.5831 32.8863 15.5852 32.8096 15.5874C28.5346 15.7301 26.6389 19.873 26.3173 20.6611C26.3152 20.6654 26.313 20.6696 26.3109 20.6739C26.1363 21.0339 26.0383 21.2831 26.0127 21.347C26.1575 20.7081 26.2556 20.0946 26.2556 19.4896C26.2556 17.498 25.6528 15.6471 24.6198 14.1092C23.5867 12.5735 22.1255 11.3487 20.4045 10.6096C20.4876 10.6096 20.5706 10.6075 20.6537 10.6053C20.7049 10.6053 20.756 10.6032 20.8071 10.5989C20.8603 10.5989 20.9137 10.5946 20.9669 10.5925C21.0479 10.5861 21.1244 10.5797 21.2011 10.5733C21.248 10.569 21.2949 10.5649 21.3417 10.5585C21.657 10.5265 21.953 10.4754 22.2299 10.4136C22.279 10.4008 22.3279 10.3901 22.3748 10.3773C22.426 10.3666 22.4771 10.3538 22.5282 10.339C22.5857 10.3241 22.6433 10.3091 22.6986 10.2921C22.788 10.2645 22.8775 10.2367 22.9627 10.2091C23.0309 10.1856 23.099 10.1622 23.1629 10.1367C23.2289 10.1132 23.295 10.0898 23.3567 10.0621C23.4206 10.0386 23.4802 10.013 23.5398 9.98538C23.657 9.93425 23.7699 9.88104 23.8763 9.82782C24.0105 9.75961 24.1341 9.69152 24.2491 9.62331C24.4386 9.51258 24.5984 9.40393 24.7305 9.30598C24.8903 9.18664 25.0117 9.08451 25.0926 9.00991C25.0947 9.00782 25.0947 9.00782 25.0969 9.00561C25.1779 8.9374 25.295 8.93961 25.3759 9.0077C25.7785 9.35698 26.82 10.3922 26.4302 11.4913C26.4281 11.4956 26.4259 11.4998 26.4238 11.5041C26.4195 11.5148 26.4238 11.5233 26.4302 11.5276C26.4366 11.5339 26.4473 11.5382 26.4558 11.5319C26.4962 11.5063 26.5346 11.4807 26.5751 11.4509C26.6646 11.387 26.7541 11.3187 26.8372 11.2443C26.8691 11.2166 26.9011 11.1867 26.933 11.1569C26.9842 11.1101 27.0353 11.0589 27.0843 11.0078C27.1078 10.9843 27.1311 10.961 27.1525 10.9354C27.1568 10.9311 27.161 10.9269 27.1653 10.9226C27.1802 10.9078 27.193 10.8928 27.2057 10.8779C27.2206 10.8608 27.2356 10.8459 27.2484 10.8311C27.2527 10.8268 27.2548 10.8226 27.2569 10.8204C27.2803 10.7948 27.3016 10.7693 27.3208 10.7437C27.3336 10.7288 27.3463 10.716 27.357 10.701C27.3954 10.6542 27.4337 10.6052 27.47 10.5583C27.4913 10.5307 27.5126 10.5029 27.5318 10.4753C27.5382 10.4689 27.5425 10.4625 27.5446 10.4561C27.5446 10.4561 27.5489 10.454 27.5489 10.4518C27.5702 10.4241 27.5915 10.3964 27.6085 10.3687C27.632 10.3368 27.6553 10.3048 27.6745 10.2728C27.6852 10.2622 27.6916 10.2494 27.698 10.2388C27.7065 10.2281 27.7128 10.2175 27.7192 10.2069C27.7363 10.1834 27.7512 10.16 27.7661 10.1366C27.798 10.0875 27.83 10.0364 27.8598 9.98747C27.8619 9.98538 27.8641 9.98317 27.8641 9.98108C27.8961 9.93204 27.9237 9.88313 27.9515 9.83409C27.9579 9.82561 27.9622 9.81701 27.9664 9.80853C28.009 9.73823 28.0474 9.66793 28.0835 9.59972C28.0984 9.57415 28.1112 9.55068 28.1239 9.52733C28.1495 9.4805 28.173 9.43146 28.1963 9.38673C28.2155 9.35047 28.2326 9.31434 28.2518 9.28017C28.2518 9.27808 28.2518 9.27587 28.2539 9.27378C28.2559 9.2653 28.2602 9.2567 28.2645 9.25031C28.288 9.20557 28.3093 9.16083 28.3285 9.11819C28.3433 9.08623 28.3583 9.05428 28.3711 9.02441C28.3796 9.00733 28.386 8.99246 28.3924 8.97759C28.3967 8.96911 28.4008 8.9605 28.4051 8.95202C28.42 8.91577 28.435 8.88381 28.4478 8.85186C28.4521 8.84116 28.4563 8.83268 28.4627 8.82199C28.5373 8.70265 28.7055 8.68569 28.8014 8.79643C29.1187 9.16071 29.6981 9.87637 30.1114 10.6858C30.1221 10.7114 30.1285 10.7369 30.139 10.7625C30.5054 11.8872 30.5502 13.0863 30.139 13.5741C30.1263 13.589 30.1135 13.604 30.0986 13.6189C30.2648 13.6444 30.4246 13.6743 30.5757 13.7083C30.6396 13.7232 30.7014 13.7382 30.7631 13.7531C30.7951 13.7615 30.8271 13.7701 30.8569 13.7786C30.9165 13.7935 30.974 13.8106 31.0295 13.8277C31.743 14.0427 32.2585 14.3431 32.6036 14.6349C32.6335 14.6604 32.6611 14.686 32.6888 14.7116C32.6931 14.7137 32.6973 14.7159 32.6995 14.7201C32.7271 14.7456 32.7527 14.7712 32.7782 14.7967C32.8038 14.8223 32.8294 14.8479 32.8528 14.8755C32.8763 14.9011 32.8997 14.9267 32.9188 14.9522C32.9551 14.9949 32.9871 15.0374 33.0147 15.0779C33.0978 15.2036 33.1446 15.3144 33.1574 15.3996C33.1589 15.4169 33.161 15.4318 33.161 15.4468Z" fill="#F25A70"/>
<path d="M7.53476 17.4713C5.66432 17.4713 4.72437 19.3825 4.62432 20.2475C4.6183 20.2992 4.67815 20.3304 4.71822 20.2972C5.03875 20.0314 5.38816 19.9616 5.38816 19.9616C5.38816 19.9616 5.64576 23.1386 7.96418 23.1386C10.7977 23.1386 10.5401 17.4713 7.53476 17.4713Z" fill="#828282"/>
<path d="M17.1074 31.9187C18.5055 32.1625 21.1446 32.3693 21.8745 31.6393C22.3468 31.167 20.7962 29.0605 19.3414 27.6491C18.9767 27.2766 18.3118 27.0025 17.667 27.0025C16.2913 27.0025 15.1768 28.1171 15.1768 29.4926C15.177 30.7207 15.9388 31.7144 17.1074 31.9187Z" fill="#F4F1E4"/>
<path d="M31.3761 13.0449C31.6992 11.7534 31.0388 10.0734 29.4438 8.2371C29.2415 8.0042 28.9489 7.87061 28.6411 7.87061C28.2153 7.87061 27.8312 8.12354 27.663 8.51498C27.5712 8.72858 27.3488 9.21306 27.029 9.70221C26.7057 9.09151 26.2272 8.61957 25.9317 8.36393C25.7375 8.19605 25.4897 8.10363 25.2338 8.10363C24.9687 8.10363 24.7147 8.20207 24.5185 8.38089C24.1726 8.69626 22.8827 9.70873 20.5694 9.7558C19.3086 9.23949 17.9719 8.97795 16.5936 8.97795C12.7118 8.97795 9.15935 11.1049 7.32271 14.5286C7.20546 14.7487 6.76277 15.7352 6.44814 16.7946C4.83579 17.3404 3.90947 19.0388 3.77883 20.1465C3.74847 20.404 3.82971 20.6626 4.00165 20.8562C4.17433 21.0505 4.42247 21.1618 4.68253 21.1618C4.70735 21.1618 4.73218 21.1609 4.75676 21.1588C4.89146 21.6221 5.10617 22.161 5.44636 22.6449C5.13972 25.1182 5.13604 27.704 5.13604 27.818C5.13604 30.5541 6.1957 32.8729 8.20035 34.5234C10.0387 36.037 12.5927 36.8705 15.3921 36.8705C21.4282 36.8705 25.6439 33.1961 25.6439 27.9351C25.6439 25.3641 26.6642 22.1024 26.812 21.6431C26.9626 21.2538 28.9114 16.435 33.0372 16.435C33.5522 16.435 33.9703 16.0458 34.0098 15.5296C34.0755 14.6729 33.1041 13.5992 31.3761 13.0449ZM21.8243 33.6492C20.1907 34.9711 17.9062 35.6992 15.3916 35.6992C9.1172 35.6992 6.30864 31.7411 6.30864 27.8184C6.30864 27.7921 6.31245 25.3677 6.58136 23.033C6.95634 23.2937 7.41156 23.4581 7.96413 23.4581C8.69405 23.4581 9.30081 23.1356 9.71905 22.5256C10.0718 22.0107 10.2661 21.3107 10.2661 20.5543C10.2661 18.9142 9.31876 17.1732 7.56372 17.1538C7.84713 16.1877 8.25553 15.2702 8.35558 15.0824C9.98796 12.0397 13.1447 10.1495 16.5942 10.1495C17.8743 10.1495 19.1132 10.403 20.2766 10.9031C21.9322 11.6142 23.3419 12.7845 24.3527 14.2873C25.3873 15.8278 25.9342 17.6266 25.9342 19.4896C25.9342 20.4848 25.6577 21.5013 25.3375 22.6783C24.9327 24.1665 24.4738 25.8534 24.4738 27.9353C24.4738 30.2707 23.5577 32.2465 21.8243 33.6492ZM8.82113 20.5483C7.09964 19.0421 5.5362 19.5607 5.29138 19.6559C5.25181 19.6655 5.18421 19.6838 5.09708 19.7163C5.40765 18.9168 6.18132 17.7908 7.53496 17.7908C8.90851 17.7908 9.62724 19.1809 9.62724 20.5541C9.62724 21.1828 9.47263 21.7545 9.19205 22.164C8.89425 22.5986 8.48118 22.8189 7.96426 22.8189C7.1445 22.8189 6.51893 22.3528 6.10475 21.4333C5.88967 20.9558 5.7868 20.4716 5.74059 20.1875C6.185 20.0861 7.23041 20.0053 8.40043 21.0291C8.46102 21.0822 8.53612 21.1081 8.61072 21.1081C8.6997 21.1081 8.78819 21.0713 8.85124 20.999C8.96738 20.8664 8.95386 20.6646 8.82113 20.5483ZM25.0925 9.01052C25.1327 8.9739 25.1831 8.95571 25.2337 8.95571C25.2836 8.95571 25.3336 8.9734 25.3743 9.00855C25.73 9.31618 26.5806 10.1568 26.5102 11.1046C26.1545 11.3849 25.7523 11.5707 25.3093 11.5707C25.1328 11.5707 24.9897 11.7137 24.9897 11.8902C24.9897 12.0667 25.1328 12.2098 25.3093 12.2098C27.1528 12.2098 28.3255 9.93671 28.7232 9.0206C29.3943 9.5712 29.8873 10.7445 30.0492 11.7423C30.1581 12.4136 30.119 12.9916 29.9534 13.2836C29.5885 13.2333 29.1897 13.2022 28.744 13.2022C28.5675 13.2022 28.4245 13.3453 28.4245 13.5218C28.4245 13.6982 28.5675 13.8413 28.744 13.8413C31.2136 13.8413 32.1827 14.7542 32.5358 15.2809C29.3336 15.5103 27.4512 17.9177 26.5725 19.4397C26.5628 17.4673 25.9797 15.5634 24.8832 13.931C23.9193 12.4981 22.6144 11.3509 21.0876 10.5803C23.3735 10.4014 24.6944 9.37333 25.0925 9.01052Z" fill="#3A4042"/>
<path d="M13.5927 22.6928C14.4676 22.6928 15.1768 21.9836 15.1768 21.1087C15.1768 20.2339 14.4676 19.5247 13.5927 19.5247C12.7179 19.5247 12.0087 20.2339 12.0087 21.1087C12.0087 21.9836 12.7179 22.6928 13.5927 22.6928Z" fill="#3A4042"/>
<path d="M19.6474 32.4677C18.4551 32.4677 17.2755 32.2724 17.0525 32.2334H17.0523C15.7395 32.0039 14.8574 30.9024 14.8574 29.4927C14.8574 27.9434 16.1178 26.6831 17.6671 26.6831C18.3815 26.6831 19.1284 26.9746 19.5699 27.4256C20.6105 28.435 22.2732 30.4087 22.2806 31.3835C22.2824 31.6311 22.1837 31.7823 22.1005 31.8654C21.6321 32.3336 20.6354 32.4677 19.6474 32.4677ZM17.1623 31.6041C18.9601 31.9177 21.13 31.9322 21.6487 31.4136C21.7557 31.1082 20.7273 29.4388 19.1192 27.8785C18.7961 27.5486 18.2013 27.3222 17.6672 27.3222C16.4703 27.3222 15.4966 28.2959 15.4966 29.4929C15.4964 30.5813 16.166 31.4297 17.1623 31.6041Z" fill="#3A4042"/>
<path d="M43.4438 18.7758C43.4438 10.005 49.958 3.27814 58.9415 3.27814C64.3487 3.27814 69.1173 5.96047 71.7146 10.1755L65.8391 13.5816C64.5191 11.2824 61.9645 9.92 58.9415 9.92C53.6621 9.92 50.256 13.454 50.256 18.7759C50.256 24.0981 53.6621 27.6319 58.9415 27.6319C61.9645 27.6319 64.5617 26.2694 65.8391 23.9705L71.7146 27.3766C69.1598 31.5917 64.3913 34.274 58.9415 34.274C49.958 34.2738 43.4438 27.5466 43.4438 18.7758Z" fill="#3A4042"/>
<path d="M73.843 23.0335C73.843 16.6896 78.8671 11.7933 85.1257 11.7933C91.3844 11.7933 96.4085 16.6894 96.4085 23.0335C96.4085 29.3776 91.3844 34.2738 85.1257 34.2738C78.8671 34.2738 73.843 29.3776 73.843 23.0335ZM90.0219 23.0335C90.0219 20.0105 87.8931 18.0094 85.1257 18.0094C82.3584 18.0094 80.2296 20.0105 80.2296 23.0335C80.2296 26.0565 82.3584 28.0576 85.1257 28.0576C87.8931 28.0576 90.0219 26.0565 90.0219 23.0335Z" fill="#3A4042"/>
<path d="M100.027 2.59689H106.413V33.6777H100.027V2.59689Z" fill="#3A4042"/>
<path d="M111.096 2.59689H117.482V33.6777H111.096V2.59689Z" fill="#3A4042"/>
<path d="M144.007 12.3895V33.6776H137.62V31.6765C136.215 33.2942 134.129 34.2738 131.277 34.2738C125.699 34.2738 121.101 29.3776 121.101 23.0335C121.101 16.6894 125.699 11.7933 131.277 11.7933C134.129 11.7933 136.215 12.7726 137.62 14.3903V12.3895H144.007ZM137.62 23.0335C137.62 19.8402 135.492 17.8392 132.554 17.8392C129.616 17.8392 127.487 19.84 127.487 23.0335C127.487 26.2266 129.616 28.2278 132.554 28.2278C135.492 28.2278 137.62 26.2268 137.62 23.0335Z" fill="#3A4042"/>
<path d="M171.595 23.0335C171.595 29.3775 166.997 34.2738 161.42 34.2738C158.567 34.2738 156.481 33.2942 155.076 31.6765V33.6776H148.689V3.87384H155.076V14.3903C156.481 12.7726 158.567 11.7933 161.42 11.7933C166.997 11.7934 171.595 16.6896 171.595 23.0335ZM165.209 23.0335C165.209 19.8402 163.08 17.8392 160.142 17.8392C157.205 17.8392 155.076 19.84 155.076 23.0335C155.076 26.2266 157.205 28.2278 160.142 28.2278C163.08 28.2278 165.209 26.2267 165.209 23.0335Z" fill="#3A4042"/>
<path d="M179.958 33.1239L177.148 30.3139V15.3273L179.958 12.5173H184.046L186.856 15.3273V18.9462H185.195V15.8806L183.279 13.9648H180.725L178.809 15.8806V29.7602L180.725 31.6762H183.279L185.195 29.7602V26.6949H186.856V30.3137L184.046 33.1238H179.958V33.1239Z" fill="#3A4042"/>
<path d="M193.71 33.1239L190.9 30.3139V15.3273L193.71 12.5173H198.393L201.203 15.3273V30.3137L198.393 33.1238H193.71V33.1239ZM194.476 31.6764H197.627L199.543 29.7603V15.8808L197.627 13.965H194.476L192.561 15.8808V29.7603L194.476 31.6764Z" fill="#3A4042"/>
<path d="M208.271 33.1239L205.461 30.3139V15.3273L208.271 12.5173H211.464L214.146 15.1994V3.74677H215.807V33.1238H214.274L214.189 30.3989L211.464 33.1238H208.271V33.1239ZM209.037 31.6764H210.953L214.146 28.483V17.1581L210.953 13.965H209.037L207.121 15.8807V29.7603L209.037 31.6764Z" fill="#3A4042"/>
<path d="M223.3 33.1239L220.49 30.3139V15.3273L223.3 12.5173H227.813L230.623 15.3273V23.1186H222.151V29.7602L224.066 31.6762H227.047L228.963 29.7602V27.2057H230.623V30.3137L227.813 33.1238H223.3V33.1239ZM222.15 21.6712H228.962V15.8808L227.047 13.965H224.066L222.15 15.8808V21.6712Z" fill="#3A4042"/>
</svg>
