<svg width="30" height="22" viewBox="0 0 30 22" fill="none" xmlns="http://www.w3.org/2000/svg">
<path fill-rule="evenodd" clip-rule="evenodd" d="M0 2C0 0.895431 0.895431 0 2 0H28C29.1046 0 30 0.895431 30 2C30 3.10457 29.1046 4 28 4H2C0.89543 4 0 3.10457 0 2ZM0 11C0 9.89543 0.895431 9 2 9H28C29.1046 9 30 9.89543 30 11C30 12.1046 29.1046 13 28 13H2C0.89543 13 0 12.1046 0 11ZM2 18C0.895431 18 0 18.8954 0 20C0 21.1046 0.89543 22 2 22H28C29.1046 22 30 21.1046 30 20C30 18.8954 29.1046 18 28 18H2Z" fill="#707070"/>
</svg>
